<?xml version="1.0" encoding="UTF-8"?>
<svg width="1118px" height="1115px" viewBox="0 0 1118 1115" version="1.1" xmlns="http://www.w3.org/2000/svg" xmlns:xlink="http://www.w3.org/1999/xlink">
    <!-- Generator: Sketch 57.1 (83088) - https://sketch.com -->
    <title>a-color</title>
    <desc>Created with Sketch.</desc>
    <g id="a-color" stroke="none" stroke-width="1" fill="none" fill-rule="evenodd">
        <path d="M621.5,234 C659.226209,234 693,164.262151 693,162.5 C693,123.01164 660.98836,91 621.5,91 C582.01164,91 541.83201,110.836741 550,162.5 C558.16799,214.163259 582.01164,234 621.5,234 Z" id="Oval" fill="#FA7369"></path>
        <path d="M698,1071 C772.558441,1071 833,1010.55844 833,936 C833,904.994139 821.199089,893.090451 803.625239,870.298924 C778.940018,838.28466 741.552581,801 698,801 C623.441559,801 535.517333,855.282349 535.517333,929.84079 C535.517333,967.22253 566.078136,1016.64035 590.626871,1041.08628 C615.040957,1065.39813 660.823299,1071 698,1071 Z" id="Oval" fill="#6E54E3"></path>
        <path d="M1013.5,217 C1037.65998,217 1054,198.867532 1054,176.5 C1054,165.547671 1044.72332,163.924046 1037.65998,156.63406 C1030.29813,149.03598 1024.9152,136 1013.5,136 C991.132468,136 973,154.132468 973,176.5 C973,198.867532 989.340019,217 1013.5,217 Z" id="Oval" fill="#5DFBD0"></path>
        <path d="M933,619 C1059.83734,631.720579 1115,472.976335 1115,412.383397 C1115,351.790459 1023.5747,291 933,291 C842.425301,291 769,364.425301 769,455 C769,545.574699 806.162659,606.279421 933,619 Z" id="Oval" fill="#E3C354"></path>
        <path d="M243.645818,929.597848 C283.134178,929.597848 331.055254,901.98836 331.055254,862.5 C331.055254,848.899255 323.19621,839.491922 316.603712,828.667529 C304.055574,808.064416 279.387614,791 253.5,791 C231.408631,791 219.583312,804.227192 206.46778,819.968948 C196.139276,832.365607 182,845.10301 182,862.5 C182,901.98836 204.157458,929.597848 243.645818,929.597848 Z" id="Oval" fill="#1C1C1C"></path>
    </g>
</svg>