<?xml version="1.0" encoding="UTF-8"?>
<svg width="90px" height="90px" viewBox="0 0 90 90" version="1.1" xmlns="http://www.w3.org/2000/svg" xmlns:xlink="http://www.w3.org/1999/xlink">
    <!-- Generator: Sketch 56.3 (81716) - https://sketch.com -->
    <title>Shape</title>
    <desc>Created with Sketch.</desc>
    <g id="Page-1" stroke="none" stroke-width="1" fill="none" fill-rule="evenodd">
        <g id="Artboard" transform="translate(-1.000000, 0.000000)" fill="#000000" fill-rule="nonzero">
            <g id="noun_Moon_2816659">
                <path d="M90.47266,58.23193 C89.9700074,57.7298191 89.2191435,57.5701244 88.55566,57.82422 C83.6617705,59.6997379 78.4640985,60.6571389 73.22314,60.64844 C59.1119457,60.6402454 45.9073656,53.6924887 37.9086208,42.0672595 C29.909876,30.4420303 28.1402024,15.6264806 33.17578,2.44434 C33.4300847,1.78093028 33.2704113,1.03000247 32.7681842,0.527457696 C32.2659571,0.024912925 31.5151304,-0.13523518 30.85156,0.11865 C10.9178824,7.75497304 -1.25151085,27.9875288 1.34516262,49.1753135 C3.94183609,70.3630981 20.6369019,87.0581639 41.8246865,89.6548374 C63.0124712,92.2515108 83.245027,80.0821176 90.88135,60.14844 C91.1352684,59.4849291 90.975164,58.7341361 90.47266,58.23193 Z M47.47166,86.40039 C27.5435789,86.3979492 10.2440595,72.6659452 5.71941868,53.2583166 C1.1947779,33.850688 10.6378741,13.8839847 28.51025,5.06885 C23.9208805,21.2823536 28.4597081,38.7100586 40.3748248,50.6251752 C52.2899414,62.5402919 69.7176464,67.0791195 85.93115,62.48975 C78.6577752,77.0854702 63.7791274,86.3356754 47.47168,86.40039 L47.47166,86.40039 Z" id="Shape"></path>
            </g>
        </g>
    </g>
</svg>