<svg width="2145" height="76" viewBox="0 0 2145 76" fill="none" xmlns="http://www.w3.org/2000/svg">
<g filter="url(#filter0_d)">
<path d="M19.9199 31.6587C19.9199 17.5993 31.3173 6.20193 45.3766 6.20193H2132.04V57.1154H45.3767C31.3174 57.1154 19.9199 45.718 19.9199 31.6587V31.6587Z" fill="#43FF99" stroke="black" stroke-width="4"/>
<path d="M12.9163 31.6587C12.9163 20.1746 22.6756 11.1113 34.1283 11.9594L61.2947 13.9713C62.2159 14.0395 62.9285 14.8068 62.9285 15.7306V47.5867C62.9285 48.5105 62.2159 49.2778 61.2947 49.346L34.1283 51.3579C22.6756 52.206 12.9163 43.1427 12.9163 31.6587Z" fill="white" stroke="black" stroke-width="4"/>
<path d="M154.208 15.0797L154.208 48.2376" stroke="black" stroke-width="4" stroke-linecap="round"/>
<path d="M160.8 20.3011L160.8 43.0162" stroke="black" stroke-width="4" stroke-linecap="round"/>
<path d="M384.8 15.0797L384.8 48.2376" stroke="black" stroke-width="4" stroke-linecap="round"/>
<path d="M376.8 20.3011L376.8 43.0162" stroke="black" stroke-width="4" stroke-linecap="round"/>
<path d="M392.8 20.3011L392.8 43.0162" stroke="black" stroke-width="4" stroke-linecap="round"/>
</g>
<defs>
<filter id="filter0_d" x="0.91629" y="0.201927" width="2143.13" height="74.9135" filterUnits="userSpaceOnUse" color-interpolation-filters="sRGB">
<feFlood flood-opacity="0" result="BackgroundImageFix"/>
<feColorMatrix in="SourceAlpha" type="matrix" values="0 0 0 0 0 0 0 0 0 0 0 0 0 0 0 0 0 0 127 0"/>
<feOffset dy="6"/>
<feGaussianBlur stdDeviation="5"/>
<feColorMatrix type="matrix" values="0 0 0 0 0 0 0 0 0 0 0 0 0 0 0 0 0 0 0.1 0"/>
<feBlend mode="normal" in2="BackgroundImageFix" result="effect1_dropShadow"/>
<feBlend mode="normal" in="SourceGraphic" in2="effect1_dropShadow" result="shape"/>
</filter>
</defs>
</svg>
